Coordinates
version=1
nRows=60
nColumns=12
inDegrees=yes

Units are S.I. units (second, meters, Newtons, ...)
Angles are in degrees

endheader
time	SC_y	SC_z	SC_x	AC_y	AC_z	AC_x	GH_y	GH_z	GH_yy	EL_x	PS_y
       0.0              -52.19          18.47          84.79          50.53         -4.057          2.744          13.88          73.15          123.7          25.86          105.5
   0.02261              -52.18          18.47          84.78          50.53          -4.06          2.745          13.88          73.14          123.7          25.86          105.5
   0.04522              -52.18          18.47          84.78          50.53         -4.062          2.745          13.87          73.14          123.6          25.87          105.5
   0.06782              -52.17          18.47          84.78          50.54         -4.065          2.746          13.85          73.13          123.6          25.87          105.5
   0.09043              -52.17          18.47          84.78          50.54         -4.068          2.746          13.84          73.12          123.6          25.88          105.5
     0.113              -52.16          18.47          84.77          50.54         -4.071          2.747          13.83          73.12          123.5          25.88          105.5
    0.1356              -52.16          18.47          84.77          50.54         -4.074          2.747          13.82          73.11          123.5          25.89          105.5
    0.1583              -52.15          18.47          84.77          50.55         -4.077          2.748           13.8           73.1          123.5          25.89          105.5
    0.1809              -52.15          18.47          84.76          50.55         -4.081          2.748          13.79          73.09          123.4           25.9          105.4
    0.2035              -52.14          18.47          84.76          50.56         -4.085          2.749          13.77          73.08          123.4          25.91          105.4
    0.2261              -52.13          18.47          84.75          50.56         -4.089           2.75          13.75          73.07          123.3          25.91          105.4
    0.2487              -52.13          18.47          84.75          50.56         -4.093           2.75          13.74          73.05          123.3          25.92          105.4
    0.2713              -52.12          18.47          84.74          50.57         -4.098          2.751          13.72          73.04          123.2          25.93          105.4
    0.2939              -52.11          18.47          84.74          50.57         -4.104          2.752          13.69          73.03          123.1          25.94          105.4
    0.3165               -52.1          18.47          84.73          50.58         -4.109          2.753          13.67          73.01          123.1          25.95          105.4
    0.3391              -52.09          18.47          84.73          50.58         -4.115          2.754          13.65          72.99          123.0          25.96          105.4
    0.3617              -52.08          18.47          84.72          50.59         -4.122          2.755          13.62          72.97          122.9          25.97          105.4
    0.3843              -52.07          18.47          84.71           50.6         -4.129          2.757          13.59          72.96          122.8          25.98          105.3
    0.4069              -52.05          18.47           84.7           50.6         -4.137          2.758          13.55          72.93          122.7          25.99          105.3
    0.4295              -52.04          18.47           84.7          50.61         -4.146          2.759          13.52          72.91          122.6          26.01          105.3
    0.4522              -52.02          18.47          84.69          50.62         -4.156          2.761          13.48          72.88          122.5          26.02          105.3
    0.4748              -52.01          18.47          84.67          50.63         -4.166          2.763          13.44          72.85          122.4          26.04          105.3
    0.4974              -51.99          18.47          84.66          50.64         -4.178          2.765          13.39          72.82          122.2          26.06          105.2
      0.52              -51.97          18.47          84.65          50.66         -4.191          2.767          13.33          72.79          122.1          26.08          105.2
    0.5426              -51.94          18.47          84.63          50.67         -4.205          2.769          13.27          72.75          121.9          26.11          105.2
    0.5652              -51.92          18.47          84.62          50.68         -4.221          2.772          13.21          72.71          121.7          26.13          105.2
    0.5878              -51.89          18.47           84.6           50.7         -4.239          2.775          13.13          72.66          121.5          26.16          105.1
    0.6104              -51.86          18.47          84.58          50.72         -4.259          2.779          13.05           72.6          121.2           26.2          105.1
     0.633              -51.82          18.47          84.55          50.74         -4.282          2.782          12.96          72.54          121.0          26.23          105.0
    0.6556              -51.78          18.47          84.53          50.77         -4.308          2.787          12.85          72.47          120.6          26.28          105.0
    0.6782              -51.73          18.47           84.5          50.79         -4.337          2.792          12.73          72.39          120.3          26.33          104.9
    0.7008              -51.67          18.47          84.46          50.83         -4.371          2.798          12.59           72.3          119.9          26.38          104.8
    0.7234              -51.61          18.47          84.42          50.86          -4.41          2.804          12.43          72.19          119.4          26.45          104.8
    0.7461              -51.53          18.47          84.37           50.9         -4.456          2.812          12.24          72.07          118.8          26.52          104.7
    0.7687              -51.45          18.47          84.32          50.96         -4.509          2.821          12.02          71.92          118.2          26.61          104.6
    0.7913              -51.34          18.47          84.25          51.01         -4.572          2.832          11.76          71.75          117.4          26.72          104.4
    0.8139              -51.22          18.47          84.18          51.08         -4.646          2.844          11.45          71.55          116.5          26.84          104.3
    0.8365              -51.07          18.47          84.09          51.17         -4.736          2.859          11.08           71.3          115.4          26.99          104.1
    0.8591               -50.9          18.47          83.97          51.27         -4.844          2.878          10.63          71.01          114.1          27.17          103.9
    0.8817              -50.68          18.47          83.84          51.39         -4.976            2.9          10.09          70.65          112.5          27.39          103.6
    0.9043              -50.41          18.47          83.67          51.55         -5.139          2.928          9.415           70.2          110.5          27.66          103.3
    0.9269              -50.08          18.47          83.46          51.74         -5.342          2.962          8.575          69.65          108.0           28.0          102.8
    0.9495              -49.66          18.47          83.19          51.98         -5.598          3.005          7.517          68.95          104.9          28.42          102.3
    0.9721              -49.13          18.47          82.86          52.29         -5.923          3.061          6.172          68.06          101.0          28.96          101.6
    0.9947              -48.44          18.47          82.43          52.68          -6.34          3.131           4.45          66.93          95.88          29.66          100.8
     1.017              -47.57          18.47          81.87          53.18         -6.874          3.222          2.241          65.47          89.37          30.55          99.65
      1.04              -46.45          18.47          81.17          53.83         -7.557          3.338        -0.5814          63.61          81.05          31.68          98.23
     1.063              -45.04          18.47          80.28          54.64         -8.415          3.483          -4.13          61.27          70.59          33.11          96.45
     1.085              -43.33          18.46           79.2          55.62         -9.461           3.66         -8.455          58.42          57.84          34.85          94.28
     1.108              -41.34          18.46          77.95          56.77         -10.67          3.866         -13.47          55.11          43.06          36.87          91.76
      1.13              -39.19          18.46          76.59           58.0         -11.99          4.089         -18.89          51.53          27.06          39.05          89.03
     1.153              -37.04          18.46          75.23          59.24          -13.3          4.311         -24.32          47.95          11.06          41.24           86.3
     1.176              -35.05          18.46          73.98          60.38         -14.51          4.517         -29.33          44.65         -3.713          43.26          83.79
     1.198              -33.33          18.46          72.89          61.37         -15.56          4.694         -33.66           41.8         -16.46           45.0          81.61
     1.221              -31.93          18.46          72.01          62.18         -16.42          4.839         -37.21          39.46         -26.92          46.43          79.83
     1.243              -30.81          18.46           71.3          62.82          -17.1          4.955         -40.03           37.6         -35.24          47.56          78.41
     1.266              -29.93          18.46          70.75          63.33         -17.63          5.046         -42.24          36.14         -41.75          48.45           77.3
     1.289              -29.25          18.46          70.32          63.72         -18.05          5.116         -43.96           35.0         -46.83          49.14          76.44
     1.311              -28.72          18.46          69.98          64.03         -18.37          5.172         -45.31          34.12          -50.8          49.68          75.76
     1.334               -28.3          18.46          69.72          64.27         -18.63          5.215         -46.36          33.42         -53.91          50.11          75.23
